<svg xmlns="http://www.w3.org/2000/svg" version="1.1" xmlns:xlink="http://www.w3.org/1999/xlink" width="1000" height="1000"><g clip-path="url(#SvgjsClipPath1105)"><rect width="1000" height="1000" fill="#ffffff"></rect><g transform="matrix(1.0135135135135136,0,0,1.0135135135135136,49.99999999999994,49.99999999999994)"><svg xmlns="http://www.w3.org/2000/svg" version="1.1" xmlns:xlink="http://www.w3.org/1999/xlink" width="888" height="888"><svg xmlns="http://www.w3.org/2000/svg" fill-rule="evenodd" clip-rule="evenodd" image-rendering="optimizeQuality" shape-rendering="geometricPrecision" text-rendering="geometricPrecision" viewBox="0 0 888 888">
  <path fill="#363635" d="M427.428.016C583.51-1.128 708.785 59.723 803.26 182.586c76.361 108.77 101.109 228.484 74.264 359.124C851.1 652.3 792.06 740.743 700.395 807.039c-113.712 77.017-237.482 99.086-371.316 66.204-141.844-41.475-241.367-130.252-298.56-266.329-39.309-104.491-40.644-209.487-4.014-314.986C77.155 162.383 167.646 73.275 297.968 24.593c42.16-14.215 85.313-22.4 129.46-24.577Zm-1.004 72.226c114.636-2.568 211.479 37.226 290.53 119.373 85.533 97.193 115.299 209.534 89.317 337.054-25.952 102.617-83.998 181.363-174.117 236.238-100.346 56.203-205.048 65.9-314.114 29.091-96.694-36.799-167.445-101.835-212.254-195.109-44.076-101.356-44.738-203.006-2.007-304.955C155.212 184.693 239.35 114.303 356.175 82.775c23.292-5.387 46.706-8.898 70.249-10.533Z" opacity=".989"></path>
  <path fill="#ea5b10" d="M438.467 100.329c10.999-1.946 18.857 2.067 23.583 12.038a15174.064 15174.064 0 0 1 68.243 231.724c-37.895-37.176-81.891-46.706-131.969-28.59-15.394 6.942-28.942 16.472-40.644 28.59a15162.682 15162.682 0 0 1 68.242-231.724c2.78-5.618 6.965-9.63 12.545-12.038Z" opacity=".988"></path>
  <path fill="#363635" d="M198.616 176.568c8.751-1.375 16.448.802 23.082 6.52 33.287 33.274 66.565 66.548 99.854 99.812 7.436 9.7 8.44 20.072 3.011 31.097-9.825 11.305-21.366 13.482-34.623 6.52-35.296-35.27-70.581-70.55-105.876-105.83-8.038-17.896-3.181-30.606 14.552-38.119Z" opacity=".984"></path>
  <path fill="#363635" d="M682.331 177.571c24.627-1.214 34.493 10.151 29.605 34.106l-3.011 5.016-103.867 103.824c-10.036 6.019-20.071 6.019-30.107 0-10.598-10.884-11.763-22.751-3.512-35.611 34.29-34.267 68.573-68.544 102.864-102.821 2.9-1.274 5.579-2.779 8.028-4.514Z" opacity=".977"></path>
  <path fill="#363635" d="M591.008 342.084c6.112-.08 11.802 1.425 17.061 4.515 19.95 20.313 32.654 44.559 38.135 72.727 50.177.842 100.355 1.344 150.533 1.504 13.719 5.197 19.238 15.057 16.559 29.593-2.62 9.64-8.811 15.498-18.566 17.555-49.847.501-99.684.672-149.53.501-4.667 26.879-16.368 50.118-35.124 69.72-12.827 8.253-24.698 7.083-35.627-3.511-6.021-10.031-6.021-20.063 0-30.094 21.927-23.784 29.284-51.543 22.079-83.262a89.626 89.626 0 0 0-9.032-22.069 433.176 433.176 0 0 1-16.057-23.072c-4.577-17.956 1.947-29.322 19.569-34.107Zm-297.054 1.004c21.356 1.785 29.886 13.151 25.591 34.106-5.35 7.363-10.709 14.716-16.057 22.069-19.168 38.45-14.823 73.901 13.046 106.334 7.176 12.725 5.67 24.261-4.516 34.608-12.725 7.176-24.266 5.671-34.623-4.514-16.368-19.845-27.237-42.415-32.615-67.713l-145.517-1.003c-16.689-4.765-22.881-15.639-18.566-32.602 2.931-7.283 8.119-12.128 15.556-14.546l148.527-1.003c5.359-27.777 18.074-51.521 38.135-71.222 3.561-2.127 7.246-3.632 11.039-4.514Z" opacity=".984"></path>
  <path fill="#363635" d="M441.477 359.138c37.654 1.063 64.589 18.457 80.787 52.163 13.428 38.42 5.238 71.356-24.587 98.81-30.117 21.562-61.891 24.236-95.338 8.025-39.09-26.193-51.302-61.805-36.63-106.835 15.254-31.95 40.513-49.334 75.768-52.163Z" opacity=".991"></path>
  <path fill="#ea5b10" d="M357.178 540.707c39.872 38.857 85.704 47.719 137.488 26.583 13.297-6.93 25.17-15.79 35.627-26.583a14769.582 14769.582 0 0 1-67.239 228.714c-4.667 13.45-13.869 17.964-27.598 13.543-4.666-2.113-7.838-5.624-9.534-10.533a30619.294 30619.294 0 0 1-68.743-231.724h-.001Z" opacity=".988"></path>
  <path fill="#363635" d="M298.972 561.773c21.235.333 30.437 11.033 27.598 32.1a38.169 38.169 0 0 1-6.022 10.031c-33.289 33.271-66.567 66.541-99.854 99.812-10.778 8.266-21.817 8.6-33.117 1.003-9.233-10.361-10.407-21.562-3.513-33.605 34.954-34.942 69.917-69.885 104.872-104.827 3.332-1.836 6.674-3.341 10.036-4.514Z" opacity=".987"></path>
  <path fill="#363635" d="M582.98 562.776c7.575-.96 14.6.545 21.074 4.514 34.954 34.942 69.917 69.885 104.871 104.827 8.029 15.218 4.848 27.422-9.533 36.615-9.795 3.725-18.827 2.388-27.097-4.013-33.95-33.939-67.909-67.879-101.86-101.818-7.357-10.687-7.357-21.388 0-32.1 3.682-3.588 7.868-6.264 12.545-8.025Z" opacity=".984"></path>
</svg></svg></g></g><defs><clipPath id="SvgjsClipPath1105"><rect width="1000" height="1000" x="0" y="0" rx="500" ry="500"></rect></clipPath></defs></svg>